<svg width="1383" height="2500" viewBox="0 0 1383 2500" fill="none" xmlns="http://www.w3.org/2000/svg">
<path d="M1207.64 899.66C1201.62 899.66 1196.66 904.621 1196.66 910.64V1005.8C1196.66 1011.82 1201.62 1016.78 1207.64 1016.78H1255.22V1064.36C1255.22 1070.38 1260.18 1075.34 1266.2 1075.34H1361.36C1367.38 1075.34 1372.34 1070.38 1372.34 1064.36V969.2C1372.34 963.181 1367.38 958.22 1361.36 958.22H1313.78V910.64C1313.78 904.621 1308.82 899.66 1302.8 899.66H1207.64ZM1351.41 900.69L1333.11 918.99L1330.59 921.62L1333.11 924.251L1351.41 942.551L1356.67 937.29L1341 921.62L1356.67 905.951L1351.41 900.69ZM1207.64 906.98H1302.8C1304.83 906.98 1306.46 908.61 1306.46 910.64V960.279L1304.97 961.88L1310.12 967.027L1311.72 965.54H1361.36C1363.39 965.54 1365.02 967.17 1365.02 969.2V1064.36C1365.02 1066.39 1363.39 1068.02 1361.36 1068.02H1266.2C1264.17 1068.02 1262.54 1066.39 1262.54 1064.36V1014.72L1264.03 1013.12L1258.88 1007.97L1257.28 1009.46H1207.64C1205.61 1009.46 1203.98 1007.83 1203.98 1005.8V910.64C1203.98 908.61 1205.61 906.98 1207.64 906.98ZM1251.56 925.28V932.6H1222.28V939.92H1270.43C1269.63 948.656 1263.05 956.905 1255.11 963.71C1251.5 961.58 1248.01 959.107 1245.5 956.39C1242.57 953.245 1240.92 950.057 1240.92 946.554H1233.6C1233.6 952.387 1236.39 957.405 1240.12 961.423C1242.71 964.211 1245.73 966.584 1248.93 968.628C1238.44 976.091 1228.11 980.523 1228.11 980.523L1231.09 987.157C1231.09 987.157 1242.52 982.382 1254.08 974.004C1254.72 973.532 1255.38 973.003 1256.02 972.517C1264.3 976.692 1271.8 978.922 1271.8 978.922L1273.75 971.945C1273.75 971.945 1268.52 970.287 1262.2 967.37C1270.26 960.05 1277.07 950.857 1277.75 939.92H1288.16V932.6H1258.88V925.28H1251.56ZM1299.83 967.027L1294.68 972.06L1299.94 977.321L1304.97 972.174L1299.83 967.027ZM1289.65 977.206L1284.5 982.353L1289.65 987.5L1294.79 982.353L1289.65 977.206ZM1279.35 987.5L1274.21 992.533L1279.47 997.794L1284.5 992.647L1279.35 987.5ZM1269.17 997.68L1264.03 1002.83L1269.17 1007.97L1274.32 1002.83L1269.17 997.68ZM1213.93 1032.45L1208.67 1037.71L1224.34 1053.38L1208.67 1069.05L1213.93 1074.31L1232.23 1056.01L1234.75 1053.38L1232.23 1050.75L1213.93 1032.45Z" fill="#E50914"/>
<path d="M1322.11 988.054L1322.08 1003.08L1322.05 1018.11L1320.82 1014.62V1014.61L1319.22 1048.06C1320.79 1052.5 1321.63 1054.87 1321.64 1054.88C1321.65 1054.89 1322.54 1054.94 1323.63 1054.99C1326.9 1055.16 1330.96 1055.5 1334.05 1055.89C1334.76 1055.98 1335.37 1056.02 1335.42 1055.99C1335.46 1055.95 1335.47 1040.66 1335.46 1021.99L1335.43 988.054H1322.11Z" fill="#E50914"/>
<path d="M1298 988.009V1021.98C1298 1040.67 1298.02 1055.97 1298.04 1056C1298.07 1056.02 1299.23 1055.91 1300.62 1055.75C1302.02 1055.6 1303.94 1055.41 1304.9 1055.33C1306.36 1055.2 1310.76 1054.92 1311.26 1054.91C1311.42 1054.91 1311.43 1054.15 1311.44 1040.52L1311.47 1026.13L1312.53 1029.14C1312.7 1029.6 1312.75 1029.74 1312.91 1030.2L1314.51 996.757C1314.17 995.8 1314.35 996.301 1313.97 995.209C1312.66 991.515 1311.55 988.394 1311.51 988.251L1311.42 988H1298V988.009Z" fill="#E50914"/>
<path d="M1322.11 988.054L1322.08 1003.08L1322.05 1018.11L1320.82 1014.62V1014.61L1319.22 1048.06C1320.79 1052.5 1321.63 1054.87 1321.64 1054.88C1321.65 1054.89 1322.54 1054.94 1323.63 1054.99C1326.9 1055.16 1330.96 1055.5 1334.05 1055.89C1334.76 1055.98 1335.37 1056.02 1335.42 1055.99C1335.46 1055.95 1335.47 1040.66 1335.46 1021.99L1335.43 988.054H1322.11Z" fill="#E50914"/>
<path d="M1298 988.009V1021.98C1298 1040.67 1298.02 1055.97 1298.04 1056C1298.07 1056.02 1299.23 1055.91 1300.62 1055.75C1302.02 1055.6 1303.94 1055.41 1304.9 1055.33C1306.36 1055.2 1310.76 1054.92 1311.26 1054.91C1311.42 1054.91 1311.43 1054.15 1311.44 1040.52L1311.47 1026.13L1312.53 1029.14C1312.7 1029.6 1312.75 1029.74 1312.91 1030.2L1314.51 996.757C1314.17 995.8 1314.35 996.301 1313.97 995.209C1312.66 991.515 1311.55 988.394 1311.51 988.251L1311.42 988H1298V988.009Z" fill="#E50914"/>
<path d="M1298 988.009V1007.08L1311.43 1042.71C1311.43 1041.9 1311.43 1041.45 1311.44 1040.52L1311.47 1026.13L1312.53 1029.14C1318.44 1045.88 1321.61 1054.86 1321.63 1054.88C1321.64 1054.89 1322.53 1054.94 1323.62 1054.99C1326.89 1055.16 1330.95 1055.5 1334.04 1055.89C1334.75 1055.98 1335.36 1056.02 1335.41 1055.99C1335.43 1055.96 1335.45 1048.47 1335.45 1037.88L1322.09 999.44L1322.08 1003.08L1322.05 1018.11L1320.82 1014.62C1319.61 1011.21 1318.81 1008.93 1313.95 995.209C1312.64 991.515 1311.53 988.394 1311.49 988.251L1311.4 988H1298V988.009Z" fill="#E50914"/>
<path d="M1298 988.009L1311.46 1026.16V1026.14L1312.53 1029.14C1318.44 1045.88 1321.61 1054.86 1321.63 1054.88C1321.64 1054.89 1322.53 1054.94 1323.62 1054.99C1326.89 1055.16 1330.95 1055.5 1334.04 1055.89C1334.74 1055.98 1335.36 1056.02 1335.4 1055.99L1322.05 1018.1L1322.05 1018.11L1320.82 1014.62C1319.61 1011.21 1318.81 1008.93 1313.95 995.209C1312.64 991.515 1311.53 988.394 1311.49 988.251L1311.4 988H1304.7L1298 988.009Z" fill="#E50914"/>
</svg>
